<svg width="196px" height="177px" viewBox="0 0 196 177">
    <path d="M31,177 L65.9684444,177 C68.7298682,177 70.9684444,174.761424 70.9684444,172 C70.9684444,171.989515 70.9684114,171.979029 70.9683455,171.968544 L70.5148624,99.8878666 C70.5049785,98.3157004 71.2351328,96.8304405 72.4860726,95.8780992 C78.9470325,90.9593664 87.451675,88.5 98,88.5 C108.567464,88.5 117.083823,90.9682992 123.549076,95.9048977 C124.779084,96.8440768 125.504872,98.2998892 125.514608,99.8474301 L125.968741,172.031456 C125.986037,174.780549 128.219495,177 130.968642,177 L166,177 C168.761424,177 171,174.761424 171,172 L171,73.7082153 L171,73.7082153 L189.472207,79.6360669 C192.101561,80.4798437 194.91709,79.0323474 195.760866,76.4029935 C195.919324,75.9092118 196,75.3937844 196,74.8752005 L196,66.1869688 L196,66.1869688 L196,55.6311886 C196,53.7938957 194.992353,52.1046089 193.3757,51.2316375 L103.227254,2.55265521 C100.275273,0.958624263 96.7206648,0.951063249 93.7619296,2.5325215 L2.64303796,51.2360087 C1.01595604,52.1056918 6.622404e-16,53.8007026 0,55.6456266 L0,74.9554402 C-6.13155565e-15,77.716864 2.23857625,79.9554402 5,79.9554402 C5.499758,79.9554402 5.99669205,79.8805152 6.47423311,79.7331632 L26,73.7082153 L26,73.7082153 L26,172 C26,174.761424 28.2385763,177 31,177 Z" id="Path" ></path>
    <circle id="Oval"  cx="98" cy="120" r="10"></circle>
</svg>